<?xml version="1.0" encoding="UTF-8" standalone="no"?>
<!-- Created with Inkscape (http://www.inkscape.org/) -->

<svg
   width="173.77188mm"
   height="159.8904mm"
   viewBox="0 0 173.77188 159.8904"
   version="1.1"
   id="svg5"
   inkscape:version="1.1.1 (3bf5ae0d25, 2021-09-20, custom)"
   sodipodi:docname="respect.svg"
   xmlns:inkscape="http://www.inkscape.org/namespaces/inkscape"
   xmlns:sodipodi="http://sodipodi.sourceforge.net/DTD/sodipodi-0.dtd"
   xmlns="http://www.w3.org/2000/svg"
   xmlns:svg="http://www.w3.org/2000/svg">
  <sodipodi:namedview
     id="namedview7"
     pagecolor="#ffffff"
     bordercolor="#666666"
     borderopacity="1.0"
     inkscape:pageshadow="2"
     inkscape:pageopacity="0.0"
     inkscape:pagecheckerboard="0"
     inkscape:document-units="mm"
     showgrid="false"
     fit-margin-top="0"
     fit-margin-left="0"
     fit-margin-right="0"
     fit-margin-bottom="0"
     inkscape:zoom="0.73584456"
     inkscape:cx="373.72023"
     inkscape:cy="219.4757"
     inkscape:window-width="1920"
     inkscape:window-height="1015"
     inkscape:window-x="0"
     inkscape:window-y="32"
     inkscape:window-maximized="1"
     inkscape:current-layer="layer1" />
  <defs
     id="defs2" />
  <g
     inkscape:label="Warstwa 1"
     inkscape:groupmode="layer"
     id="layer1"
     transform="translate(-6.2219771,-4.2003399)">
    <path
       style="fill:#000000;stroke-width:0.166667"
       d="m 96.06358,163.85134 c -2.36372,-0.63665 -4.49871,-2.32457 -4.86347,-3.84507 -0.15831,-0.65993 -0.15774,-1.01693 0.003,-1.66117 0.18056,-0.72528 0.4629,-1.08385 2.43076,-3.08708 2.35535,-2.39768 2.66353,-2.89828 2.30674,-3.74685 -0.35052,-0.83364 -1.101,-1.18248 -1.89865,-0.88252 -0.24224,0.0911 -2.42795,2.13589 -4.85711,4.544 -3.34132,3.31235 -4.61566,4.46959 -5.23399,4.75302 -3.12015,1.43027 -6.68679,0.16383 -8.19614,-2.91025 -0.43911,-0.89432 -0.48654,-1.15338 -0.48654,-2.65758 0,-1.49839 0.0473,-1.75922 0.46846,-2.58334 0.25765,-0.50416 0.97375,-1.44166 1.59133,-2.08333 2.38715,-2.48027 2.69021,-2.86957 2.69021,-3.45578 0,-0.30436 -0.10951,-0.70974 -0.24336,-0.90083 -0.33296,-0.47537 -1.1529,-0.7889 -1.70242,-0.65098 -0.28158,0.0707 -1.93383,1.57738 -4.37824,3.99255 -4.57416,4.51947 -4.57054,4.51722 -7.25931,4.51147 -1.40859,-0.003 -1.79003,-0.0643 -2.46334,-0.3957 -1.25746,-0.61895 -2.37481,-1.73366 -2.98964,-2.98256 -0.49076,-0.99686 -0.54583,-1.25502 -0.53991,-2.5308 0.0116,-2.50746 0.21495,-2.83886 4.24589,-6.9207 1.90099,-1.925 3.54049,-3.66382 3.64334,-3.86405 0.5196,-1.01159 -0.24838,-2.21929 -1.41125,-2.21929 -0.59098,0 -0.83552,0.20942 -4.63782,3.9718 -2.79374,2.7644 -4.24814,4.08309 -4.78437,4.33792 -3.03406,1.44185 -6.55239,0.28916 -8.15838,-2.6729 -0.54732,-1.00946 -0.57119,-1.12661 -0.57119,-2.80348 0,-1.57676 0.0459,-1.84351 0.46383,-2.69453 0.39529,-0.80493 2.84139,-3.31725 16.55123,-16.99925 8.84807,-8.8301 16.25185,-16.14616 16.45284,-16.25791 0.91975,-0.51135 2.15502,0.031 2.43427,1.06872 0.0937,0.34813 0.47497,4.12047 0.84731,8.38297 0.37234,4.2625 0.79315,8.35 0.93513,9.08333 0.8138,4.20326 3.7581,8.01264 7.60481,9.83926 1.00671,0.47804 1.50052,0.61427 2.25219,0.62135 1.2397,0.0117 2.4907,-0.40897 3.31524,-1.11475 1.35694,-1.16149 1.26692,-0.82242 4.97425,-18.73558 3.53,-17.056285 3.64597,-17.755635 3.23801,-19.526955 -0.27163,-1.17941 -1.10439,-2.71294 -1.99872,-3.68067 -0.45122,-0.48824 -0.82039,-0.90982 -0.82039,-0.93685 0,-0.027 2.60647,-0.0491 5.79216,-0.0491 h 5.79216 l 10.49921,-10.505146 c 9.43363,-9.438705 10.5418,-10.494793 10.91617,-10.403201 0.77721,0.190146 3.90725,1.58973 6.08333,2.720131 6.6915,3.476012 12.5068,8.193769 17.03697,13.821506 2.76,3.42871 5.66271,8.30725 7.29075,12.25346 l 0.6065,1.47009 -0.62454,0.69658 c -0.3435,0.38312 -5.52288,5.644725 -11.50976,11.692465 l -10.88524,10.99589 -1.624,-1.60298 c -0.89321,-0.88164 -1.92401,-1.78681 -2.29068,-2.01149 -5.10384,-3.12751 -11.7732,-0.20392 -13.01676,5.70603 -0.16927,0.80444 -0.22749,1.61028 -0.16333,2.26074 l 0.0997,1.01074 -1.00761,-0.0729 c -3.9944,-0.28893 -8.01126,2.78274 -8.83702,6.75764 -0.1917,0.92273 -0.13686,3.38012 0.0922,4.13378 0.0962,0.31632 -0.003,0.3535 -1.42842,0.53337 -4.61496,0.58251 -7.90518,4.4569 -7.60899,8.95994 0.0482,0.73334 0.14054,1.46459 0.20511,1.625 0.10496,0.26074 -0.004,0.29188 -1.02542,0.29365 -2.26682,0.004 -4.22413,0.83072 -5.90761,2.49546 -1.72941,1.71016 -2.47517,3.54086 -2.47917,6.08589 -0.004,2.337 0.71056,4.17837 2.3035,5.93862 l 0.91778,1.01418 -0.40533,0.32139 c -0.6337,0.50246 -2.14977,1.24528 -3.14392,1.54041 -1.11276,0.33034 -3.42855,0.33645 -4.63233,0.0122 z m 13.20425,-2.2989 c -1.08249,-0.3568 -1.43213,-0.59694 -2.80801,-1.92862 -1.80112,-1.74327 -2.32193,-2.83398 -2.29829,-4.8133 0.0176,-1.47055 0.46145,-2.4758 1.60472,-3.63414 1.16389,-1.17924 2.23827,-1.6382 3.83491,-1.6382 1.79662,0 2.62677,0.41518 4.43941,2.22027 1.33833,1.33275 1.66754,1.7661 1.97477,2.59939 0.98378,2.6683 -0.35134,5.79828 -2.96824,6.95855 -0.96052,0.42588 -2.84604,0.54363 -3.77927,0.23605 z m 11.37191,-9.28834 c -1.4445,-0.2354 -2.27116,-0.7811 -4.38412,-2.89406 -2.54197,-2.54197 -2.82113,-3.06268 -2.82113,-5.2622 0,-1.31778 0.0646,-1.71452 0.38526,-2.36547 0.51007,-1.03555 1.48462,-2.01704 2.56735,-2.58562 0.77225,-0.40555 1.06548,-0.4627 2.38073,-0.46405 2.1754,-0.002 2.80403,0.34861 5.44183,3.03701 1.75397,1.7876 2.14569,2.28247 2.44812,3.09271 0.97289,2.60645 -0.0681,5.54687 -2.41405,6.8187 -0.71472,0.38748 -1.09652,0.49582 -2.4759,0.70255 -0.18334,0.0275 -0.69097,-0.008 -1.12809,-0.0796 z m 11.0005,-8.83761 c -1.32965,-0.31326 -2.07526,-0.89172 -5.32181,-4.12882 -3.44897,-3.43894 -3.79783,-3.91755 -4.12924,-5.66507 -0.35392,-1.8662 0.50875,-4.03671 2.07864,-5.22993 1.51509,-1.15158 3.54303,-1.44406 5.36874,-0.77432 0.86944,0.31894 1.31193,0.70119 4.48574,3.875 3.17381,3.17381 3.55606,3.6163 3.875,4.48574 1.16668,3.18036 -0.54532,6.53237 -3.76457,7.37088 -1.04966,0.2734 -1.64911,0.28879 -2.5925,0.0665 z m 9.75612,-10.23208 c -0.47931,-0.13453 -1.15431,-0.42658 -1.5,-0.64899 -0.3457,-0.22242 -2.06729,-1.85561 -3.82577,-3.62932 -3.74237,-3.77478 -3.94099,-4.09197 -3.95031,-6.30826 -0.005,-1.21002 0.0605,-1.55386 0.44945,-2.35715 0.53018,-1.09488 1.64512,-2.1881 2.75215,-2.69853 0.61567,-0.28387 1.0942,-0.35916 2.27928,-0.35861 2.23003,0.001 2.6449,0.26401 6.53215,4.14077 3.83302,3.82268 4.13707,4.30903 4.13041,6.60685 -0.003,1.13252 -0.0804,1.57165 -0.38443,2.18935 -1.21982,2.47821 -3.95836,3.77247 -6.48293,3.06389 z m -98.91658,-3.64402 c -2.144539,-0.73086 -3.63757,-2.08497 -5.581732,-5.06236 -1.602602,-2.4543 -2.776822,-5.49358 -3.394987,-8.78738 l -0.345851,-1.84281 -7.40944,-7.42377 -7.40944,-7.423785 0.601138,-1.74289 c 1.283178,-3.72035 5.103608,-10.65984 5.724673,-10.39839 2.057715,0.86622 4.433445,1.05284 6.326407,0.49695 2.70544,-0.79448 4.951795,-3.11683 5.775653,-5.97104 0.531097,-1.83995 0.283104,-4.425247 -0.588345,-6.133429 l -0.30935,-0.606378 1.116327,-0.831409 c 2.688247,-2.002128 6.523007,-4.364295 9.633207,-5.933943 l 0.8502,-0.42908 7.82031,7.830547 7.82031,7.830542 2.24615,-1.07529 c 5.02918,-2.40761 9.37432,-3.44182 14.43421,-3.43559 5.32512,0.007 10.40814,1.30696 14.95547,3.8261 1.3289,0.73618 6.86737,4.98153 8.66907,6.64501 0.80355,0.74191 1.43712,2.27706 1.43727,3.48255 9e-5,0.7049 -1.07462,6.22945 -3.33507,17.143945 -1.83436,8.85714 -3.38302,16.18912 -3.44146,16.29328 -0.29232,0.52102 -0.83202,0.94468 -1.32006,1.03624 -0.86714,0.16268 -2.71249,-0.89555 -4.23661,-2.42949 -1.43863,-1.4479 -2.4433,-3.21613 -2.88863,-5.08402 -0.15298,-0.64166 -0.61663,-4.94562 -1.03033,-9.56434 -0.82834,-9.248 -0.82237,-9.21752 -2.07001,-10.571065 -1.413,-1.53292 -3.63774,-1.95255 -5.59436,-1.05521 -0.90176,0.41356 -2.46553,1.921565 -15.91667,15.349025 -15.68767,15.66005 -15.3562,15.357 -17.48858,15.98967 -1.37046,0.40661 -3.66043,0.3512 -5.04947,-0.12219 z M 11.394175,92.062585 c -4.6745333,-4.68233 -4.9772343,-5.08406 -5.1591913,-6.84705 -0.157323,-1.52431 1.129113,-5.59091 2.960236,-9.357704 3.5068933,-7.21401 9.2671583,-12.845037 16.8854313,-16.506587 4.01369,-1.929088 7.511772,-3.031565 8.994752,-2.83484 1.684587,0.223469 2.279742,0.667845 6.334847,4.729955 l 3.80909,3.815669 -1.47575,0.783926 c -2.58435,1.372814 -5.57551,3.22132 -7.850435,4.85149 l -2.208005,1.582217 -0.645222,-0.426988 c -1.188403,-0.786447 -2.324562,-1.11794 -4.13098,-1.205282 -1.40219,-0.0678 -1.888972,-0.02206 -2.840253,0.266887 -5.507072,1.672721 -7.9021,8.314947 -4.684469,12.991607 0.60054,0.87286 0.712634,0.51645 -1.024856,3.25858 -1.304815,2.05927 -2.972025,5.33082 -3.78252,7.4224 -0.34192,0.88237 -0.665967,1.65894 -0.720102,1.72572 -0.05414,0.0668 -2.062295,-1.84572 -4.462573,-4.25 z m 158.335355,-2.58821 -1.70497,-3.44988 5.11697,-5.12133 c 2.81433,-2.816739 5.18071,-5.057591 5.25863,-4.979674 0.0779,0.07792 0.44182,1.027898 0.80867,2.111073 0.76311,2.253201 0.9539,3.766981 0.64173,5.091611 -0.42342,1.79663 -0.86998,2.3928 -4.63677,6.18999 -1.97778,1.99375 -3.63721,3.62119 -3.68763,3.61654 -0.0504,-0.005 -0.8589,-1.5609 -1.79663,-3.45833 z m -4.7173,-7.82488 c -1.35672,-1.81772 -2.65772,-3.3797 -3.85477,-4.628071 l -0.80202,-0.836406 5.56182,-5.55996 5.56182,-5.55996 1.36776,1.646366 c 1.4339,1.72596 3.26734,4.37087 3.77422,5.444675 l 0.29817,0.631642 -5.24137,5.243358 c -2.88277,2.883846 -5.28893,5.243356 -5.34707,5.243356 -0.0581,0 -0.65148,-0.73125 -1.31856,-1.625 z m -7.82774,-8.558877 c -1.10063,-0.994714 -4.3709,-3.512917 -5.719,-4.40379 l -0.969,-0.640354 5.32649,-5.326488 5.3265,-5.326487 1.78966,1.065499 c 1.79205,1.066913 5.92529,4.084691 6.02575,4.399543 0.0294,0.09206 -2.40295,2.618337 -5.40516,5.613952 l -5.45857,5.446575 z m -11.68925,-7.953112 c -1.15825,-0.616422 -2.8256,-1.41902 -3.70522,-1.783553 -0.87962,-0.364534 -1.60071,-0.705215 -1.60242,-0.757072 -0.002,-0.05186 1.70314,-1.77876 3.78856,-3.837567 4.1184,-4.065848 4.76741,-4.531886 6.65869,-4.781465 1.54247,-0.203548 2.78242,0.03091 5.13298,0.970564 1.19166,0.476378 2.20081,0.897528 2.24255,0.935888 0.0812,0.07461 -10.18307,10.395725 -10.32488,10.382083 -0.0464,-0.0045 -1.032,-0.512458 -2.19026,-1.128878 z M 87.49991,62.366254 c -3.1761,-0.87588 -4.87083,-2.911648 -13.39603,-16.091756 -1.63053,-2.520834 -3.75246,-5.703514 -4.71539,-7.072622 -0.96293,-1.36911 -1.94182,-2.906567 -2.1753,-3.416572 -0.80565,-1.759773 -0.47775,-3.643836 0.89949,-5.168276 1.00818,-1.115935 1.74115,-1.421924 3.40515,-1.421525 1.23169,3.33e-4 1.53636,0.06237 2.33333,0.475426 1.5235,0.789595 10.27224,7.070194 13.23721,9.502799 l 1.15387,0.946695 1.59494,-1.71463 c 5.74054,-6.171317 17.34287,-18.135447 25.75857,-26.56182 7.56914,-7.578725 7.67612,-7.661822 9.83874,-7.64225 1.82641,0.01653 3.22749,0.912721 4.07339,2.605521 0.95456,1.910254 0.66828,3.324262 -1.1744,5.800587 -4.73939,6.36912 -24.0687,33.959962 -30.80483,43.971117 -2.60879,3.877145 -4.21774,5.31919 -6.52945,5.852126 -0.97599,0.225002 -2.55437,0.195764 -3.49929,-0.06482 z"
       id="path21" />
  </g>
</svg>
