<?xml version="1.0" encoding="UTF-8" standalone="no"?>
<!-- Created with Inkscape (http://www.inkscape.org/) -->

<svg
   width="181.54047mm"
   height="182.07602mm"
   viewBox="0 0 181.54047 182.07602"
   version="1.1"
   id="svg235"
   inkscape:version="1.1.1 (3bf5ae0d25, 2021-09-20, custom)"
   sodipodi:docname="networking.svg"
   xmlns:inkscape="http://www.inkscape.org/namespaces/inkscape"
   xmlns:sodipodi="http://sodipodi.sourceforge.net/DTD/sodipodi-0.dtd"
   xmlns="http://www.w3.org/2000/svg"
   xmlns:svg="http://www.w3.org/2000/svg">
  <sodipodi:namedview
     id="namedview237"
     pagecolor="#ffffff"
     bordercolor="#666666"
     borderopacity="1.0"
     inkscape:pageshadow="2"
     inkscape:pageopacity="0.0"
     inkscape:pagecheckerboard="0"
     inkscape:document-units="mm"
     showgrid="false"
     fit-margin-top="0"
     fit-margin-left="0"
     fit-margin-right="0"
     fit-margin-bottom="0"
     inkscape:zoom="0.73584456"
     inkscape:cx="360.13041"
     inkscape:cy="431.477"
     inkscape:window-width="1920"
     inkscape:window-height="1015"
     inkscape:window-x="0"
     inkscape:window-y="32"
     inkscape:window-maximized="1"
     inkscape:current-layer="layer1" />
  <defs
     id="defs232" />
  <g
     inkscape:label="Warstwa 1"
     inkscape:groupmode="layer"
     id="layer1"
     transform="translate(-9.6528956,-34.411648)">
    <path
       style="fill:#000000;stroke-width:0.166667"
       d="m 42.354356,216.25726 c -0.275,-0.12356 -0.8375,-0.57911 -1.25,-1.01231 -1.599737,-1.68005 -2.576172,-2.3729 -3.52872,-2.50392 -0.716577,-0.0986 -1.006217,-0.24177 -1.512148,-0.7477 -0.809634,-0.80963 -0.815795,-1.36162 -0.03837,-3.43728 1.352693,-3.61159 2.014265,-7.65939 2.25727,-13.81107 0.188558,-4.77332 0.439617,-6.44925 1.298503,-8.66812 2.075964,-5.36308 7.098672,-9.42453 13.190129,-10.66576 1.894611,-0.38606 5.460203,-0.27103 7.498531,0.24191 3.036095,0.76402 5.87177,2.28549 8.011855,4.29873 1.651504,1.55362 2.604145,2.86546 3.55927,4.90132 1.119176,2.38554 1.420986,3.8396 1.603466,7.72525 0.40619,8.64909 0.91299,11.98472 2.44176,16.07112 0.45276,1.2102 0.56686,1.72703 0.49673,2.2499 -0.12622,0.94103 -0.93991,1.67373 -2.04233,1.83903 -1.09998,0.16494 -1.16687,0.20862 -3.061017,1.9988 -2.367889,2.23794 -2.943827,2.28467 -4.928004,0.3999 -1.896475,-1.80146 -2.740075,-1.86263 -4.246928,-0.30788 -1.054723,1.08823 -1.447867,1.33247 -2.14486,1.33247 -0.79824,0 -1.234702,-0.24194 -2.150662,-1.19212 -0.851036,-0.88283 -0.868515,-0.89122 -1.859855,-0.89122 -0.995553,0 -1.005798,0.005 -1.974625,0.96372 -1.021238,1.01058 -1.702126,1.28155 -2.633143,1.04788 -0.246348,-0.0618 -0.909785,-0.58348 -1.474302,-1.15923 -1.579816,-1.61123 -2.526791,-1.61323 -4.09873,-0.009 -1.434161,1.46392 -2.339488,1.81804 -3.413823,1.33529 z m 16.387058,-10.0378 c 1.636857,-0.46811 2.419489,-0.84328 3.80091,-1.822 1.644982,-1.16546 2.973067,-2.74656 3.904007,-4.64778 1.059912,-2.16462 1.406595,-3.8453 1.271595,-6.16455 -0.151828,-2.60839 0.02054,-2.42332 -2.258008,-2.42441 -2.609335,-0.001 -2.96692,-0.12353 -4.48941,-1.5352 -2.549715,-2.36413 -3.72611,-2.38794 -5.994012,-0.12132 -0.92922,0.9287 -1.474812,1.33935 -1.955473,1.47183 -0.411057,0.1133 -2.436045,0.18411 -5.281455,0.18469 l -4.614787,0.001 -0.135213,0.79166 c -0.227239,1.33049 -0.129685,4.1941 0.18311,5.375 1.083931,4.0922 4.183356,7.42089 8.141513,8.74374 2.412628,0.80631 4.947285,0.85661 7.427223,0.14741 z m 90.196276,3.2823 c -5.66928,-1.21293 -10.03169,-5.27061 -11.78174,-10.95873 -0.41464,-1.34768 -0.45065,-1.69112 -0.45065,-4.29805 0,-2.60694 0.036,-2.95037 0.45065,-4.29805 1.6618,-5.4013 5.69431,-9.33967 11.08199,-10.82331 1.9312,-0.5318 5.89923,-0.52907 7.85528,0.005 2.9083,0.79469 5.1524,2.11925 7.26113,4.28582 1.62281,1.66732 2.77684,3.53959 3.51524,5.70304 0.74201,2.17401 0.96373,3.72781 0.85051,5.96041 -0.35768,7.05364 -5.45932,13.01057 -12.36279,14.43542 -1.92681,0.39768 -4.52756,0.39283 -6.41962,-0.012 z m 6.16666,-3.11926 c 0.59584,-0.13625 1.79584,-0.59367 2.66667,-1.01649 1.36226,-0.66141 1.80525,-0.99115 3.17266,-2.36156 1.28973,-1.29254 1.72216,-1.85985 2.29396,-3.00947 0.88002,-1.76928 1.36671,-3.66593 1.36671,-5.32607 v -1.27275 l -1.18752,-0.20363 c -2.42712,-0.41622 -4.55721,-1.55119 -6.01113,-3.20294 l -0.84398,-0.9588 -0.8148,1.21823 c -1.89113,2.82748 -5.06804,5.00613 -8.8456,6.06611 -1.60586,0.45062 -4.25652,0.8443 -5.6928,0.84553 l -1.14583,0.002 0.10814,0.54167 c 0.19749,0.98926 1.56287,3.52696 2.46283,4.57743 3.12345,3.64585 7.77459,5.17567 12.47069,4.10175 z M 77.913702,192.40891 c -0.50437,-0.274 -0.8113,-0.99524 -0.6911,-1.62401 0.14097,-0.73744 0.74112,-1.14211 1.84185,-1.24192 1.75759,-0.15937 2.71212,0.41098 2.70127,1.61409 -0.01,1.09574 -0.63542,1.50754 -2.27541,1.49791 -0.65937,-0.004 -1.32083,-0.10712 -1.57661,-0.24607 z m 7.90771,0.0841 c -0.50662,-0.20401 -0.92951,-1.07683 -0.80231,-1.65593 0.1723,-0.78447 0.76561,-1.19317 1.87868,-1.2941 1.77041,-0.16053 2.70658,0.40704 2.70658,1.64094 0,0.48187 -0.11085,0.70803 -0.51279,1.04624 -0.45099,0.37949 -0.65688,0.43022 -1.70834,0.42092 -0.65755,-0.006 -1.36037,-0.0769 -1.56182,-0.15807 z m 7.74128,-0.0113 c -0.35787,-0.20848 -0.79167,-1.01714 -0.79167,-1.47579 0,-0.18644 0.20699,-0.57065 0.45998,-0.85379 0.3918,-0.4385 0.61052,-0.52845 1.4757,-0.60691 1.76544,-0.16008 2.73099,0.3996 2.73099,1.58303 0,0.3957 -0.14237,0.70143 -0.48718,1.04624 -0.45665,0.45665 -0.56893,0.48687 -1.79167,0.48212 -0.71746,-0.003 -1.43574,-0.0815 -1.59616,-0.17495 z m 7.660268,-0.15535 c -0.78651,-0.61867 -0.74311,-1.96519 0.0799,-2.47917 0.51271,-0.32019 2.14421,-0.42989 2.86343,-0.19253 1.12859,0.37247 1.45069,1.68676 0.61755,2.51988 -0.45667,0.45669 -0.57006,0.48719 -1.81085,0.48719 -1.07399,0 -1.40411,-0.0633 -1.75003,-0.33537 z m 7.70191,-0.15182 c -0.83313,-0.83312 -0.51104,-2.14741 0.61755,-2.51988 0.71922,-0.23736 2.35072,-0.12766 2.86343,0.19253 0.82302,0.51398 0.86641,1.8605 0.0799,2.47917 -0.34592,0.2721 -0.67604,0.33537 -1.75002,0.33537 -1.24079,0 -1.35419,-0.0305 -1.81086,-0.48719 z m 7.83333,0 c -0.34481,-0.34486 -0.48718,-0.65059 -0.48718,-1.04629 0,-1.18343 0.96555,-1.74311 2.73099,-1.58303 0.86517,0.0785 1.0839,0.16841 1.4757,0.60691 0.52142,0.58357 0.57046,0.97911 0.20825,1.67955 -0.35703,0.69041 -0.72141,0.83 -2.1668,0.83 -1.18564,0 -1.30749,-0.0337 -1.76096,-0.48719 z m 7.85894,0.0557 c -0.40194,-0.33826 -0.51279,-0.56442 -0.51279,-1.04629 0,-1.2339 0.93617,-1.80147 2.70658,-1.64094 1.56398,0.14182 2.30698,1.13108 1.71268,2.28033 -0.34071,0.65885 -0.82257,0.83834 -2.25065,0.83834 -0.98654,0 -1.21324,-0.0591 -1.65582,-0.43149 z m 15.20895,-12.11023 c -1.00705,-1.12273 -1.16914,-2.02608 -0.48609,-2.70913 0.80553,-0.80553 1.7445,-0.69002 2.50594,0.30829 0.66754,0.87518 0.72411,1.59297 0.17681,2.24339 -0.37406,0.44454 -0.56461,0.53245 -1.15416,0.53245 -0.52151,0 -0.79408,-0.098 -1.0425,-0.375 z m 14.99314,-5.5 c -0.53324,-0.58259 -0.61234,-1.07566 -0.30265,-1.88658 0.3366,-0.88137 1.10723,-1.57175 1.75444,-1.57175 0.26724,0 0.69837,0.18843 0.98721,0.43148 0.59662,0.50202 0.68244,1.2493 0.2433,2.11846 -0.48996,0.96972 -0.89254,1.28339 -1.64718,1.28339 -0.50471,0 -0.78475,-0.10145 -1.03512,-0.375 z m -83.993417,-0.0346 c -1.094409,-0.47606 -1.168295,-1.43854 -0.22274,-2.9015 0.933153,-1.44377 1.757315,-1.71774 2.681989,-0.89154 0.75378,0.6735 0.71152,1.38881 -0.15767,2.66875 -0.45782,0.67417 -0.848933,1.05682 -1.208204,1.18206 -0.292182,0.10186 -0.538799,0.18226 -0.548035,0.17867 -0.0092,-0.004 -0.254642,-0.10998 -0.54534,-0.23644 z m 65.823097,0.12367 c -0.77853,-0.14603 -2.17591,-2.33465 -1.98254,-3.10511 0.23869,-0.951 1.2227,-1.47424 2.09386,-1.1134 0.5764,0.23875 1.66686,1.81001 1.7922,2.58242 0.071,0.43758 -0.004,0.64191 -0.38832,1.0528 -0.50557,0.54104 -0.91012,0.69678 -1.5152,0.58329 z m -88.459626,-3.74262 c -0.585418,-0.46049 -1.247853,-1.87284 -1.249966,-2.665 -0.0013,-0.47786 0.10957,-0.70375 0.51116,-1.04166 0.995843,-0.83795 1.87016,-0.48402 2.657546,1.07578 0.658557,1.30459 0.654109,1.99701 -0.01645,2.56125 -0.626066,0.5268 -1.290178,0.55111 -1.902283,0.0696 z m 110.053576,-2.5515 c -0.24983,-0.1403 -0.52951,-0.50638 -0.63799,-0.83509 -0.17417,-0.52775 -0.14051,-0.69951 0.34252,-1.74745 0.58234,-1.2634 1.02868,-1.67077 1.83059,-1.67077 0.67917,0 1.49309,0.78808 1.49291,1.44551 -1.5e-4,0.54211 -0.82057,2.36648 -1.2086,2.68755 -0.40901,0.33844 -1.32332,0.39887 -1.81943,0.12025 z m -83.562748,-0.6624 c -0.5849,-0.58491 -0.54691,-1.43029 0.11032,-2.45449 0.99692,-1.55357 1.93105,-1.87827 2.82674,-0.98258 0.6838,0.6838 0.64999,1.35788 -0.12616,2.51505 -0.77709,1.15856 -0.99158,1.31929 -1.76923,1.32581 -0.45411,0.004 -0.748,-0.11012 -1.04167,-0.40379 z m 57.295078,0.29732 c -0.23284,-0.0936 -1.41028,-1.78134 -1.59671,-2.28867 -0.18799,-0.5116 0.20289,-1.41245 0.73148,-1.68579 1.02575,-0.53044 1.60411,-0.271 2.50575,1.12401 0.83413,1.29056 0.83505,2.10982 0.003,2.74858 -0.26414,0.2028 -1.24192,0.2634 -1.64361,0.10187 z m -87.170752,-3.98359 c -0.497014,-0.34812 -1.366749,-2.09557 -1.366749,-2.74604 0,-0.68903 0.788252,-1.49194 1.464704,-1.49194 0.867371,0 1.78813,1.05705 2.21389,2.54159 0.382053,1.33214 -1.187544,2.48388 -2.311845,1.69639 z m 55.299922,-1.24848 c -15.215748,-1.68265 -27.520098,-12.37183 -31.244554,-27.14313 -0.71172,-2.8227 -0.98665,-5.18356 -0.991373,-8.51303 -0.007,-4.9467 0.725423,-8.92685 2.438305,-13.25 4.974864,-12.5561 16.421524,-21.201053 29.916912,-22.594403 2.5697,-0.26531 7.03328,-0.11324 9.54737,0.32527 11.42249,1.99232 20.9756,9.127763 26.1496,19.531753 5.45355,10.9661 4.8381,24.28609 -1.60329,34.69937 -1.9828,3.20542 -4.73534,6.36364 -7.73208,8.87164 -4.86179,4.06889 -11.03094,6.82935 -17.49742,7.82945 -2.09947,0.3247 -7.03722,0.45831 -8.98347,0.24308 z m -6.688468,-5.55614 c 2.46127,-1.48611 5.44565,-2.27497 9.521798,-2.51689 4.69721,-0.27878 9.23354,0.74152 11.34949,2.55269 l 0.67834,0.58064 0.94442,-0.38241 c 8.84399,-3.58112 15.88052,-11.0281 18.85895,-19.959 0.71311,-2.13831 1.44908,-5.55398 1.53257,-7.11276 l 0.0529,-0.98771 -1.12876,-0.21081 c -0.62083,-0.11594 -1.70833,-0.48783 -2.41667,-0.82641 -1.20732,-0.57708 -1.60646,-0.93224 -6.37944,-5.67648 -2.80036,-2.78348 -5.14411,-5.06088 -5.20834,-5.06088 -0.0642,0 -0.11679,0.96833 -0.11679,2.15185 v 2.15185 l -0.51278,0.43148 c -0.29967,0.25215 -0.71843,0.43148 -1.00758,0.43148 -0.82111,0 -1.31297,0.64343 -1.31297,1.71756 0,1.7572 -0.58706,2.44911 -2.07798,2.44911 h -0.58868 v 0.98234 c 0,4.1071 -1.17738,9.55625 -3.08275,14.26766 -1.20693,2.98437 -1.74753,3.9184 -2.95732,5.10955 -1.50241,1.47927 -4.20766,2.62616 -6.22135,2.63756 -1.83076,0.0104 -3.657158,-1.34242 -4.163368,-3.08372 -0.36034,-1.23952 -0.29738,-1.58883 1.033598,-5.73408 0.96159,-2.99479 1.08518,-3.52662 1.02806,-4.42376 -0.0449,-0.70465 -0.17803,-1.17856 -0.43096,-1.53376 -0.60734,-0.85294 -1.260718,-1.05512 -3.409748,-1.05512 -2.38671,0 -3.15368,-0.242 -4.41215,-1.39218 -1.24392,-1.13687 -1.71409,-2.14935 -1.71409,-3.69116 0,-1.53794 0.46921,-2.53715 1.76506,-3.75879 1.80979,-1.70615 4.05665,-2.94745 6.64835,-3.67296 1.210318,-0.33881 1.792688,-0.37978 6.312358,-0.44409 l 4.97903,-0.0709 0.81264,0.80041 0.81264,0.80042 v -0.76214 c 0,-0.41918 -0.047,-1.10498 -0.10443,-1.524 l -0.10442,-0.76187 -2.50965,-1.3864 c -1.38031,-0.76251 -2.57082,-1.41139 -2.64558,-1.44195 -0.0748,-0.0305 -0.13592,0.39058 -0.13592,0.93586 0,0.75062 -0.0839,1.09807 -0.34543,1.43055 -0.32393,0.41181 -0.43211,0.43915 -1.73791,0.43915 -1.3058,0 -1.41397,-0.0273 -1.7379,-0.43915 -0.18999,-0.24152 -0.34543,-0.5755 -0.34543,-0.74215 0,-0.44969 -0.34098,-1.11548 -0.64758,-1.26445 -0.148,-0.0719 -1.86133,-0.16979 -3.807398,-0.2175 l -3.53831,-0.0868 -0.43828,-0.43872 c -0.29896,-0.29925 -0.46188,-0.67012 -0.5125,-1.16667 -0.11234,-1.10206 0.28911,-1.58247 2.13013,-2.54909 2.81247,-1.47668 2.67244,-1.33921 3.971128,-3.89867 0.86359,-1.70196 1.28422,-2.35926 1.60262,-2.50433 0.62423,-0.28442 8.62196,-2.52586 9.01257,-2.52586 0.18096,0 0.68933,0.2285 1.1297,0.50778 1.51045,0.95789 2.37533,0.82385 3.33898,-0.51747 0.4248,-0.5913 0.74478,-0.85034 1.2099,-0.97951 0.36276,-0.10074 2.44434,-0.17918 4.88237,-0.184 l 4.25,-0.008 -0.83333,-0.75673 c -1.92874,-1.75144 -6.72606,-4.564373 -9.33772,-5.475213 l -0.83773,-0.29216 -0.78116,0.5272 c -1.72046,1.16113 -4.1042,1.99449 -6.96006,2.43328 -2.06673,0.31753 -6.62898,0.31768 -8.583328,3.3e-4 -2.286,-0.37128 -4.388,-1.19147 -5.54197,-2.16248 -0.27838,-0.2343 -0.59661,-0.42596 -0.70717,-0.42596 -0.11056,0 -1.13357,0.44609 -2.27334,0.99131 -2.24469,1.07375 -4.59581,2.549463 -6.54283,4.106693 l -1.23198,0.98533 1.9966,0.11147 c 2.81739,0.15728 3.93357,0.69496 4.87896,2.35028 0.9817,1.71888 0.79027,3.70529 -0.49812,5.16898 -0.49748,0.56517 -1.26145,1.08127 -2.8891,1.95174 -3.19971,1.71123 -4.70186,3.0635 -6.01796,5.41753 -0.68088,1.21785 -0.98739,2.11491 -1.44168,4.21931 -0.7012,3.24813 -1.5303,4.62743 -4.5352,7.54473 -2.149076,2.08644 -2.159744,2.10056 -2.045724,2.70834 l 0.114616,0.61096 h 3.221498 c 3.55329,0 4.06517,0.0976 5.34869,1.01931 1.64741,1.18307 2.08392,2.33172 2.24113,5.89735 0.0647,1.46667 0.20199,2.86943 0.30517,3.11726 0.10318,0.24782 1.10173,2.04611 2.21899,3.99619 1.11727,1.95008 2.14482,3.80982 2.28345,4.13275 0.15497,0.36099 0.29004,1.38958 0.35067,2.67047 l 0.0986,2.08333 1.58334,0.79548 c 1.29382,0.65003 3.0234,1.40517 3.31153,1.44584 0.0338,0.005 0.48384,-0.24631 1,-0.55796 z m -14.42345,4.001 c -0.70979,-0.61053 -0.63954,-1.42235 0.23409,-2.70513 0.73771,-1.08319 0.94414,-1.22923 1.73761,-1.22923 0.66838,0 1.47355,0.7985 1.47355,1.46134 0,0.55993 -1.13662,2.42166 -1.64436,2.69339 -0.5564,0.29778 -1.30501,0.20617 -1.80089,-0.22037 z m 48.694808,0.21396 c -0.56987,-0.27738 -1.5829,-2.01255 -1.5829,-2.71127 0,-0.82563 0.63542,-1.43922 1.48267,-1.43175 0.74442,0.007 0.96575,0.17548 1.73732,1.32581 0.77443,1.15461 0.82958,1.98442 0.17234,2.59352 -0.46444,0.43043 -1.19829,0.52115 -1.80943,0.22369 z m 34.10212,-0.0476 c -0.45621,-0.25285 -0.8379,-0.86361 -0.84415,-1.35075 -0.006,-0.48772 0.74458,-2.01726 1.22715,-2.49982 0.82244,-0.82245 2.30578,-0.3424 2.5232,0.81658 0.0811,0.43236 -0.0229,0.80357 -0.47903,1.70929 -0.74218,1.47377 -1.45566,1.86317 -2.42717,1.3247 z M 41.169504,156.90861 c -0.66487,-0.66487 -1.284066,-2.16618 -1.16193,-2.81722 0.183137,-0.97621 1.163504,-1.48299 2.110237,-1.09084 0.708765,0.29358 1.728135,2.29279 1.577763,3.09435 -0.21785,1.16124 -1.700833,1.63895 -2.52607,0.81371 z m 124.161016,-2.41223 c -0.49199,-0.19854 -0.89283,-0.81656 -0.89283,-1.37657 0,-0.6097 0.88751,-2.36048 1.36675,-2.69614 0.7926,-0.55516 1.85068,-0.24679 2.2247,0.64837 0.25586,0.61236 0.16928,1.09179 -0.39792,2.2036 -0.60191,1.17986 -1.37955,1.59247 -2.3007,1.22074 z m -127.374969,-4.3821 c -0.374392,-0.17976 -1.517862,-2.2377 -1.517862,-2.73176 0,-0.44439 0.42114,-1.09105 0.857505,-1.31671 1.062635,-0.54951 1.788417,-0.16355 2.492964,1.32572 0.61834,1.30704 0.617421,1.82787 -0.0043,2.4496 -0.522803,0.52281 -1.12189,0.61231 -1.828292,0.27315 z m 130.874969,-2.61159 c -0.50962,-0.21465 -0.89283,-0.83051 -0.89283,-1.43484 0,-0.74735 0.90835,-2.4776 1.42405,-2.71257 1.10496,-0.50346 2.24261,0.11534 2.24261,1.21983 0,0.60852 -0.78126,2.36419 -1.21061,2.72052 -0.33527,0.27825 -1.14087,0.38496 -1.56322,0.20706 z M 15.687689,143.74642 c -1.583049,-0.56464 -2.131859,-2.33831 -1.175262,-3.79826 0.152242,-0.23235 0.848116,-0.70475 1.546387,-1.04977 0.835423,-0.41279 1.64449,-0.99255 2.365895,-1.69534 1.088424,-1.06034 1.090915,-1.06485 0.346314,-0.62708 -2.515402,1.47886 -5.767286,2.3407 -7.287424,1.93137 -1.6759322,-0.45128 -2.3744912,-2.448 -1.356571,-3.87753 0.468957,-0.65859 0.863478,-0.82938 2.461942,-1.0658 1.599081,-0.2365 3.658025,-1.15696 4.765386,-2.13037 l 0.666667,-0.58603 -0.818156,0.24035 c -1.26136,0.37056 -2.606391,0.31509 -3.265262,-0.13465 -1.076843,-0.73504 -1.433753,-2.00886 -0.874657,-3.12167 0.394778,-0.78576 1.168417,-1.2647 2.390652,-1.47999 0.953546,-0.16797 2.615239,-0.94774 2.425008,-1.13797 -0.04689,-0.0469 -0.334027,-0.007 -0.638085,0.0891 -1.763556,0.55608 -2.95896,0.3779 -3.786282,-0.56437 -0.661553,-0.75347 -0.802026,-1.55088 -0.440135,-2.49847 0.353367,-0.92528 0.96364,-1.36869 2.197755,-1.59683 0.932536,-0.17238 2.438328,-0.81774 2.629408,-1.12691 0.05457,-0.0883 -0.202021,-0.084 -0.613206,0.0102 -1.151871,0.26402 -2.796817,0.10538 -3.406124,-0.32848 -0.666077,-0.47429 -1.132178,-1.63418 -0.980849,-2.44083 0.118057,-0.62929 0.748051,-1.48636 1.315984,-1.79031 0.192553,-0.10305 0.938654,-0.2467 1.658002,-0.31922 1.965083,-0.1981 2.521225,-0.54744 5.278783,-3.31592 1.940694,-1.94838 2.660995,-2.55751 3.59383,-3.03918 2.725565,-1.40734 6.25668,-1.64289 9.036534,-0.60282 1.13772,0.42568 2.757468,1.62714 3.301098,2.44862 0.35724,0.53983 0.622167,0.71524 1.546722,1.0241 1.429848,0.47767 3.808326,1.66126 5.217718,2.59646 3.083203,2.04587 5.331547,4.9922 6.240378,8.17765 0.699922,2.45324 1.936709,3.89307 4.378982,5.09791 1.713733,0.84543 2.195235,1.4217 2.195235,2.62728 0,0.94541 -0.4831,1.74096 -1.330733,2.1914 -0.745964,0.3964 -1.285454,0.38932 -2.351432,-0.0308 -0.473645,-0.1867 -0.887513,-0.31311 -0.919707,-0.28091 -0.03219,0.0322 0.08367,1.02869 0.257472,2.21444 0.173802,1.18575 0.369272,3.02389 0.434377,4.08476 0.106681,1.73836 0.08451,2.00539 -0.224465,2.70389 -0.21274,0.48093 -0.552685,0.90297 -0.89584,1.11219 -0.71814,0.43783 -1.878755,0.4434 -2.585617,0.0124 -0.970205,-0.59157 -1.101523,-0.97743 -1.32947,-3.90638 -0.29224,-3.75507 -0.271855,-3.70623 -1.019392,-2.44259 -1.882058,3.18144 -5.769871,5.9861 -9.647041,6.95937 -1.739605,0.43668 -5.704514,0.38617 -7.471485,-0.0952 -1.65006,-0.44951 -3.643612,-1.373 -4.98334,-2.30849 l -1.01666,-0.7099 -0.818174,0.92907 c -1.054933,1.19791 -2.698698,2.4372 -4.177115,3.14928 -1.4688,0.70744 -1.99948,0.80136 -2.838045,0.50226 z m 21.416667,-4.74806 c 3.364535,-1.14143 5.842998,-3.26072 7.45727,-6.37658 0.717752,-1.3854 0.703628,-1.56133 -0.134353,-1.67373 -0.827427,-0.11098 -2.196542,-0.76726 -3.013249,-1.4444 -0.851205,-0.70573 -1.720728,-2.08061 -2.33774,-3.6964 -0.605703,-1.58618 -1.390596,-2.54386 -2.693938,-3.28699 -1.090518,-0.62178 -1.803813,-1.37287 -2.358427,-2.48339 -0.433373,-0.86775 -0.895883,-2.6645 -0.933191,-3.62522 -0.01493,-0.38456 -0.105939,-0.22919 -0.394159,0.67294 -1.695628,5.30735 -5.25679,8.23881 -10.740953,8.8417 l -1.065408,0.11712 0.09741,1.68412 c 0.263009,4.54738 2.71646,8.30812 6.809202,10.4374 2.080868,1.08259 3.315158,1.34428 5.974207,1.26664 1.754051,-0.0512 2.48879,-0.1467 3.333333,-0.43321 z m 135.749994,3.42901 c -3.1184,-0.60601 -5.69467,-1.91336 -7.89453,-4.00617 -2.81813,-2.68099 -4.42316,-5.89025 -4.86208,-9.72178 -0.98443,-8.59356 5.62306,-16.57019 14.20985,-17.15427 l 1.45323,-0.0988 -0.10127,-0.96883 c -0.0563,-0.53918 -0.0112,-1.4338 0.10205,-2.01732 1.17319,-6.0502 8.55997,-8.44565 12.99595,-4.21444 2.7139,2.58861 3.21594,6.63921 1.21709,9.81982 -0.38809,0.61754 -1.97429,2.25983 -2.18797,2.26534 -0.0544,10e-4 -0.19807,0.0654 -0.31918,0.14216 -0.1674,0.10615 -0.0273,0.39521 0.5844,1.20579 3.06571,4.06238 3.95816,9.43317 2.36505,14.23283 -0.86057,2.59263 -2.12259,4.56363 -4.16805,6.50955 -2.8296,2.6919 -6.10365,4.03646 -10.14454,4.16607 -1.3434,0.0431 -2.4977,-0.0137 -3.25,-0.1599 z m 5.8128,-3.26047 c 1.52052,-0.38889 3.48259,-1.37654 4.81084,-2.42167 2.0717,-1.6301 3.79616,-4.47332 4.37213,-7.20858 0.1074,-0.51005 0.0865,-0.5418 -0.35752,-0.54386 -0.25936,-0.001 -1.1514,-0.1425 -1.9823,-0.31398 -4.28903,-0.88521 -7.52235,-3.76077 -9.34023,-8.30678 -0.26532,-0.66345 -0.52725,-1.2072 -0.58207,-1.20833 -0.0548,-0.001 -0.24233,0.31604 -0.41666,0.70483 -0.56805,1.26675 -1.83695,3.02001 -3.00555,4.1528 -2.07004,2.0066 -4.30447,3.14546 -7.41276,3.77818 l -1.56534,0.31864 0.0505,0.56342 c 0.17911,1.99907 1.30812,4.58086 2.78244,6.36283 1.57794,1.90719 4.06241,3.48713 6.48051,4.12112 1.66332,0.43611 4.46382,0.43673 6.16603,0.001 z M 54.258203,125.0078 c -0.789472,-0.78947 -0.629104,-1.92516 0.342816,-2.42776 0.558882,-0.28901 2.055877,-0.33227 2.778675,-0.0803 0.495694,0.1728 1.057995,0.91055 1.057995,1.38811 0,0.4932 -0.400883,1.1335 -0.857505,1.36963 -0.271455,0.14038 -0.945006,0.2375 -1.647038,0.2375 -1.09057,0 -1.22763,-0.0399 -1.674943,-0.48718 z m 7.833333,0 c -0.626957,-0.62695 -0.660192,-1.45976 -0.08494,-2.12853 0.381928,-0.44401 0.4736,-0.46762 1.815835,-0.46762 1.179168,0 1.474953,0.0553 1.783558,0.33333 0.548827,0.4945 0.705885,1.03789 0.48949,1.69357 -0.255375,0.7738 -0.878468,1.05643 -2.328997,1.05643 -1.09057,0 -1.22763,-0.0399 -1.674943,-0.48718 z m 81.531164,0.2546 c -1.12242,-0.62211 -1.08211,-2.12858 0.0716,-2.67605 0.69385,-0.32926 2.28223,-0.3327 2.91339,-0.006 0.97192,0.5026 1.13229,1.63829 0.34282,2.42776 -0.4513,0.4513 -0.57711,0.48674 -1.70834,0.48127 -0.69088,-0.003 -1.39411,-0.10177 -1.61947,-0.22668 z m 7.98165,0.11434 c -1.27261,-0.46793 -1.25912,-2.41785 0.0198,-2.86369 0.85919,-0.29952 2.32229,-0.22896 2.92948,0.14127 0.9808,0.59803 0.9114,2.10507 -0.12099,2.62746 -0.40812,0.20651 -2.3478,0.27164 -2.8283,0.095 z m 19.03342,-15.81045 c -0.20575,-0.14411 -0.60382,-0.7171 -0.88458,-1.27332 -0.39187,-0.77626 -0.48642,-1.13978 -0.40682,-1.56409 0.18457,-0.98376 1.37457,-1.54002 2.26972,-1.06096 0.45198,0.2419 1.3216,2.0344 1.3216,2.72416 0,1.08888 -1.40075,1.80402 -2.29992,1.17421 z M 38.924869,109.0078 c -0.607685,-0.60768 -0.62063,-1.13579 -0.0575,-2.34561 0.54596,-1.17293 0.823757,-1.47045 1.489622,-1.59537 0.770852,-0.14461 1.505948,0.27999 1.746472,1.00879 0.174853,0.52981 0.141133,0.70012 -0.349255,1.76403 -0.78778,1.70911 -1.849879,2.14762 -2.829339,1.16816 z m 128.237821,-6.40598 c -0.27861,-0.23443 -0.71084,-0.88144 -0.96052,-1.4378 -0.40011,-0.89156 -0.43133,-1.08015 -0.26314,-1.589783 0.23052,-0.69846 0.72989,-1.07926 1.41532,-1.07926 0.73477,0 1.19057,0.39176 1.75367,1.507273 0.5938,1.17632 0.62648,1.82435 0.12133,2.40573 -0.56303,0.64799 -1.43026,0.72933 -2.06666,0.19384 z M 42.450478,102.0635 c -0.670565,-0.56424 -0.675014,-1.25666 -0.01645,-2.561253 0.787386,-1.5598 1.661703,-1.91373 2.657546,-1.07578 0.648995,0.54609 0.671145,1.18234 0.08568,2.461163 -0.730145,1.59484 -1.721035,2.02214 -2.726774,1.17587 z m 82.871252,-5.894523 c -1.04027,-0.6343 -0.87598,-1.88897 0.4418,-3.37392 0.51447,-0.57974 0.72529,-0.70008 1.22648,-0.70008 0.71805,0 1.37851,0.53901 1.53533,1.25299 0.20374,0.92762 -1.42548,3.14791 -2.30877,3.14639 -0.19922,-3.3e-4 -0.6019,-0.14676 -0.89484,-0.32538 z m 38.48271,-0.43602 c -0.51062,-0.35765 -1.36795,-2.10505 -1.36145,-2.77489 0.0114,-1.17843 1.33662,-1.87207 2.29462,-1.20107 0.49701,0.34813 1.36674,2.09558 1.36674,2.74605 0,1.11172 -1.39987,1.86033 -2.29991,1.22991 z m -117.728247,-0.4929 c -0.25298,-0.13738 -0.527455,-0.49193 -0.636409,-0.82206 -0.16912,-0.51244 -0.138361,-0.69907 0.262384,-1.59205 0.805823,-1.79562 1.940231,-2.31856 2.915008,-1.34379 0.632007,0.63201 0.629787,1.23983 -0.0091,2.50556 -0.73634,1.45868 -1.477148,1.82511 -2.531832,1.25234 z m 35.103989,0.0957 c -0.36003,-0.14587 -1.6149,-1.70338 -1.80572,-2.24121 -0.18281,-0.51527 0.20912,-1.4136 0.7355,-1.6858 0.86999,-0.44989 1.31935,-0.32455 2.18168,0.60855 1.28062,1.3857 1.43123,2.20765 0.56351,3.07537 -0.41261,0.41262 -1.03398,0.5028 -1.67497,0.24309 z m 48.553358,-5.59384 c -0.97837,-0.54545 -1.04203,-1.44713 -0.19749,-2.79731 0.93102,-1.48843 2.01196,-1.81331 2.89737,-0.87083 0.54927,0.58466 0.48229,1.35521 -0.21215,2.44081 -0.3207,0.50133 -0.6916,1.00156 -0.82422,1.11163 -0.40068,0.33253 -1.17765,0.38657 -1.66351,0.1157 z m -54.098438,-1.20527 c -0.85539,-0.91196 -1.2598,-1.74196 -1.10227,-2.26223 0.2857,-0.94359 1.36124,-1.4899 2.13018,-1.082 0.2273,0.12058 0.73664,0.62638 1.13186,1.124 0.57144,0.71951 0.71858,1.0388 0.71858,1.55936 0,0.84491 -0.64076,1.45254 -1.53174,1.45254 -0.5053,0 -0.72546,-0.12943 -1.34661,-0.79167 z m 84.802588,0.2447 c -0.53161,-0.26629 -1.48919,-2.03216 -1.49532,-2.75752 -0.006,-0.74195 0.75979,-1.52884 1.48836,-1.52884 0.8001,0 1.24801,0.40685 1.82427,1.65705 0.61087,1.32531 0.57615,1.78914 -0.18162,2.42677 -0.54706,0.46032 -1.00732,0.51731 -1.63569,0.20254 z m -110.782941,-0.455 c -0.381126,-0.15348 -0.883726,-0.95572 -0.883726,-1.41058 0,-0.55824 1.136923,-2.52039 1.57641,-2.72064 0.712411,-0.32459 1.244396,-0.23831 1.769743,0.28704 0.637268,0.63726 0.618977,1.09276 -0.101313,2.52306 -0.70915,1.40819 -1.310042,1.7444 -2.361114,1.32112 z m 84.025361,-5.40712 c -0.30101,-0.30101 -0.40909,-0.58923 -0.40909,-1.09091 0,-0.93819 0.56181,-1.5 1.5,-1.5 0.91953,0 1.50212,0.56546 1.4947,1.45076 -0.003,0.34791 -0.0967,0.75157 -0.20833,0.89702 -0.57417,0.74783 -1.75211,0.8683 -2.37728,0.24313 z m -62.995999,-0.63009 c -1.206383,-1.34179 -1.348073,-1.9497 -0.648273,-2.78137 0.359373,-0.42709 0.551978,-0.51278 1.152503,-0.51278 0.650413,0 0.789842,0.0775 1.423821,0.79166 0.84189,0.94833 1.20198,1.72849 1.05962,2.29571 -0.1529,0.6092 -0.83866,1.07929 -1.574458,1.07929 -0.54725,0 -0.730425,-0.11309 -1.413213,-0.87251 z m 86.281399,-0.50375 c -0.45536,-0.21902 -1.52782,-2.24234 -1.52782,-2.8824 0,-0.64045 0.83593,-1.408 1.53343,-1.408 0.30748,0 0.71457,0.10891 0.90463,0.24204 0.35159,0.24626 1.39527,2.24665 1.39527,2.67426 0,0.47155 -0.4096,1.11458 -0.8575,1.3462 -0.53831,0.27836 -0.91231,0.28557 -1.44801,0.0279 z M 52.758203,81.007797 c -0.633005,-0.633 -0.629744,-1.2399 0.0135,-2.51418 0.613825,-1.21598 1.106775,-1.5784 1.960875,-1.44165 0.659861,0.10564 1.143798,0.55739 1.311071,1.22386 0.145847,0.5811 -0.955151,2.7636 -1.525161,3.02331 -0.702997,0.32031 -1.237032,0.23192 -1.760292,-0.29134 z m 83.667707,-1.06329 c -1.68621,-0.47846 -3.07009,-1.64715 -3.92957,-3.31854 -0.36798,-0.71559 -0.46644,-1.16486 -0.52443,-2.39304 -0.0629,-1.33223 -0.021,-1.63688 0.35253,-2.56159 l 0.42393,-1.04954 -0.55075,-0.56708 c -0.80506,-0.82894 -1.541,-2.32098 -1.77725,-3.60318 -0.5208,-2.82643 0.99905,-5.86868 3.61462,-7.23531 0.49605,-0.25919 0.90208,-0.51996 0.9023,-0.5795 1.7e-4,-0.0595 -0.26227,-0.49857 -0.58331,-0.97564 -0.84904,-1.26167 -1.13413,-2.40634 -1.05398,-4.23185 0.0557,-1.26879 0.15266,-1.701294 0.59133,-2.638144 0.69922,-1.493294 1.78072,-2.616584 3.26157,-3.38759 1.69975,-0.88498 2.06039,-1.167319 2.54304,-1.990895 0.31847,-0.54344 0.46653,-1.117134 0.58578,-2.269749 0.27331,-2.641696 1.35834,-4.318855 3.46519,-5.356222 0.97593,-0.480529 1.25096,-0.540185 2.43709,-0.528626 0.73536,0.0072 1.97835,0.07306 2.7622,0.146425 1.68123,0.15736 2.05997,0.01752 3.4095,-1.258804 0.46971,-0.444232 1.29906,-1.01611 1.843,-1.270839 0.8517,-0.398851 1.19722,-0.463145 2.48899,-0.463145 1.27598,0 1.64125,0.06622 2.44586,0.443401 1.21852,0.571222 2.28871,1.564891 2.88121,2.675199 0.91227,1.709562 1.70726,2.23104 3.7577,2.464897 1.69616,0.193451 2.75848,0.660779 3.71444,1.634024 0.89779,0.914024 1.4415,2.043115 1.56662,3.253324 l 0.0892,0.862488 1.16452,0.28522 c 1.99197,0.48788 3.48305,1.712695 4.33562,3.56139 0.31325,0.679258 0.37818,1.106212 0.37818,2.486726 0,1.49475 -0.049,1.76639 -0.47473,2.63346 -0.2611,0.53174 -0.83072,1.32278 -1.2658,1.75787 l -0.79109,0.79107 0.56497,0.65357 c 1.32427,1.53195 1.99317,3.79412 1.71102,5.78652 -0.18777,1.3258 -0.51149,2.10937 -1.38855,3.36093 l -0.68915,0.98342 -0.002,1.68325 c -0.002,1.48251 -0.0545,1.79256 -0.44658,2.59991 -0.3821,0.78686 -0.42535,1.02251 -0.30544,1.66413 0.45627,2.44125 -1.31988,5.20616 -3.81781,5.94317 -2.2779,0.67209 -4.9366,-0.34754 -6.18866,-2.37341 -0.34359,-0.55627 -0.37251,-0.56723 -1.49718,-0.56723 -2.58601,0 -4.62039,-1.50858 -5.33795,-3.95833 l -0.20748,-0.70833 h -1.53854 c -1.70263,0 -3.85159,-0.35295 -5.1472,-0.8454 -1.08307,-0.41165 -1.26113,-0.40408 -1.26312,0.0537 -0.003,0.58957 -0.72576,1.98668 -1.34811,2.60431 -0.67693,0.67181 -1.67952,1.15206 -2.69593,1.29137 -0.71763,0.0984 -0.75557,0.13328 -1.13075,1.04055 -0.49388,1.19431 -1.83971,2.56199 -3.07964,3.12965 -1.12297,0.51411 -3.09158,0.6723 -4.25572,0.34198 z m 21.34511,-10.98095 c 5.08679,-0.95987 9.28994,-5.47332 9.90963,-10.64119 0.10884,-0.90769 0.10717,-0.91208 -0.50194,-1.31981 -1.45831,-0.97616 -2.4382,-2.96858 -2.44226,-4.96591 -0.002,-0.843296 -0.0644,-1.208333 -0.20733,-1.208333 -0.11267,0 -0.66057,-0.227721 -1.21755,-0.506046 -1.64969,-0.82436 -2.79455,-2.358185 -2.98963,-4.005352 -0.0535,-0.452065 -0.15397,-0.821935 -0.22318,-0.821935 -0.16839,0 -0.95213,0.788342 -1.6205,1.630027 -0.342,0.430683 -0.93979,0.878953 -1.61614,1.21192 -1.38384,0.681263 -3.03561,0.73962 -4.39403,0.15524 l -0.86749,-0.373184 -0.66041,0.750262 c -0.36322,0.412645 -0.92254,0.874655 -1.24293,1.026688 l -0.58253,0.276427 0.55837,0.731502 c 0.66735,0.874273 1.01237,2.161054 0.86662,3.232114 -0.1356,0.99651 -0.83001,2.41768 -1.40401,2.87341 l -0.44802,0.35572 0.41666,0.27327 c 0.98648,0.64698 1.86843,1.63699 2.37502,2.666 0.49612,1.00778 0.54165,1.23364 0.54165,2.6871 0,1.37001 -0.0606,1.71608 -0.4434,2.5327 -0.24387,0.52022 -0.75086,1.27941 -1.12665,1.68709 l -0.68325,0.74124 0.79331,0.339 c 2.21144,0.94496 4.58916,1.16659 7.20999,0.67205 z m -91.132549,7.99776 c -0.615413,-0.30675 -1.867448,-2.09171 -1.867448,-2.66234 0,-0.68593 0.79939,-1.47066 1.498136,-1.47066 0.734907,0 1.017165,0.18968 1.80838,1.21524 0.837632,1.08572 0.946099,1.98933 0.310472,2.58647 -0.469478,0.44106 -1.237533,0.58649 -1.74954,0.33129 z m -13.924157,-4.79661 c -4.217291,-0.76533 -8.030341,-3.25576 -10.432036,-6.81353 -2.910515,-4.31151 -3.390832,-10.25244 -1.216582,-15.047643 2.366863,-5.220008 7.602428,-8.79914 13.301708,-9.093303 6.460875,-0.333472 12.086462,2.949642 14.909799,8.701417 1.152521,2.347949 1.555186,4.117209 1.555186,6.833329 0,2.71448 -0.402203,4.48329 -1.5538,6.83334 -2.050161,4.18373 -5.497553,7.01265 -10.0909,8.28057 -1.32849,0.3667 -5.144458,0.54698 -6.473375,0.30582 z m 6.0271,-3.44525 c 1.636857,-0.46811 2.419489,-0.84327 3.80091,-1.822 3.273872,-2.31952 5.339532,-6.4249 5.194702,-10.32417 l -0.04934,-1.32831 -1.333333,-0.0913 c -1.600013,-0.1096 -1.847082,-0.23021 -3.278627,-1.60044 -2.215285,-2.120399 -3.544693,-2.113721 -5.787535,0.0291 -0.708376,0.67678 -1.494413,1.309 -1.746746,1.40494 -0.288987,0.10987 -2.705124,0.17443 -6.5281,0.17443 h -6.069309 l -0.109795,0.43747 c -0.06039,0.2406 -0.06607,1.05713 -0.01262,1.8145 0.368396,5.22022 3.658241,9.54276 8.492565,11.15843 2.412628,0.80632 4.947285,0.85663 7.427223,0.14741 z m 17.612938,-7.36609 c -1.28059,-0.4164 -1.65122,-1.64947 -0.76282,-2.53787 0.4588,-0.4588 0.56636,-0.48718 1.84616,-0.48718 1.2798,0 1.38735,0.0284 1.84615,0.48718 0.79861,0.79861 0.51442,2.12975 -0.53263,2.49475 -0.5674,0.1978 -1.85019,0.22088 -2.39686,0.0431 z m 7.49596,-0.0806 c -0.98115,-0.44783 -1.1957,-1.68703 -0.42544,-2.45728 0.45667,-0.45667 0.57006,-0.48718 1.81085,-0.48718 1.07399,0 1.40411,0.0633 1.75003,0.33536 0.79152,0.62262 0.74256,1.96554 -0.0906,2.48588 -0.52591,0.32843 -2.42668,0.40536 -3.04481,0.12322 z m 7.80883,-0.0103 c -1.01754,-0.46275 -1.21008,-1.63784 -0.40094,-2.44698 0.45347,-0.45347 0.57532,-0.48718 1.76096,-0.48718 1.44539,0 1.80977,0.13958 2.1668,0.83 0.36322,0.70238 0.31301,1.09615 -0.21514,1.68725 -0.4222,0.47254 -0.57763,0.52896 -1.625,0.58989 -0.78203,0.0455 -1.32977,-0.0107 -1.68668,-0.17298 z m 7.83334,0 c -1.04063,-0.47325 -1.23634,-1.77819 -0.37534,-2.50268 0.45177,-0.38014 0.66131,-0.43148 1.760958,-0.43148 1.42867,0 1.78477,0.14074 2.15177,0.85044 0.32548,0.62942 0.19708,1.30962 -0.34299,1.81699 -0.51334,0.48226 -2.3781,0.63796 -3.194398,0.26673 z m 7.833328,0 c -0.63092,-0.28692 -0.89,-0.71681 -0.88282,-1.46487 0.0101,-1.04972 0.6503,-1.46929 2.24202,-1.46929 0.65816,0 1.29906,0.10161 1.59007,0.2521 0.85406,0.44165 0.93856,1.79568 0.15624,2.50367 -0.43609,0.39465 -2.38393,0.50654 -3.10551,0.17839 z m 8.02855,0.1132 c -0.87072,-0.21064 -1.36001,-1.18205 -1.04727,-2.07918 0.23381,-0.67072 0.91483,-0.96818 2.21661,-0.96818 1.59172,0 2.23195,0.41957 2.24202,1.46929 0.007,0.76428 -0.25722,1.1848 -0.91943,1.46149 -0.5425,0.22667 -1.7947,0.28525 -2.49193,0.11658 z m 7.83333,0 c -0.94144,-0.22775 -1.45209,-1.33978 -1.00885,-2.19692 0.367,-0.7097 0.7231,-0.85044 2.15177,-0.85044 1.09965,0 1.30919,0.0513 1.76096,0.43148 0.87738,0.73827 0.66101,2.05098 -0.41194,2.4993 -0.54251,0.22667 -1.79471,0.28525 -2.49194,0.11658 z"
       id="path251" />
  </g>
</svg>
