<?xml version="1.0" encoding="UTF-8" standalone="no"?>
<!-- Created with Inkscape (http://www.inkscape.org/) -->

<svg
   width="200.00003mm"
   height="186.62013mm"
   viewBox="0 0 200.00003 186.62013"
   version="1.1"
   id="svg375"
   inkscape:version="1.1.1 (3bf5ae0d25, 2021-09-20, custom)"
   sodipodi:docname="respect.svg"
   xmlns:inkscape="http://www.inkscape.org/namespaces/inkscape"
   xmlns:sodipodi="http://sodipodi.sourceforge.net/DTD/sodipodi-0.dtd"
   xmlns="http://www.w3.org/2000/svg"
   xmlns:svg="http://www.w3.org/2000/svg">
  <sodipodi:namedview
     id="namedview377"
     pagecolor="#ffffff"
     bordercolor="#666666"
     borderopacity="1.0"
     inkscape:pageshadow="2"
     inkscape:pageopacity="0.0"
     inkscape:pagecheckerboard="0"
     inkscape:document-units="mm"
     showgrid="false"
     fit-margin-top="0"
     fit-margin-left="0"
     fit-margin-right="0"
     fit-margin-bottom="0"
     inkscape:zoom="0.73584456"
     inkscape:cx="377.79718"
     inkscape:cy="485.8363"
     inkscape:window-width="1920"
     inkscape:window-height="1015"
     inkscape:window-x="0"
     inkscape:window-y="32"
     inkscape:window-maximized="1"
     inkscape:current-layer="layer1" />
  <defs
     id="defs372" />
  <g
     inkscape:label="Warstwa 1"
     inkscape:groupmode="layer"
     id="layer1"
     transform="translate(-5,-20)">
    <path
       style="fill:#000000;stroke-width:0.200242"
       d="m 33.937744,206.19004 c -0.50767,-0.2513 -1.088976,-0.76415 -1.401694,-1.23664 l -0.5343,-0.80727 -0.05115,-14.93276 -0.05115,-14.93276 6.809321,-15.98874 c 3.8452,-9.02879 6.809317,-16.24848 6.809317,-16.58543 0,-0.7651 -0.962123,-1.76735 -1.696602,-1.76735 -1.452232,0 -1.07887,-0.74173 -9.032528,17.94409 l -7.392778,17.36813 -5.175361,8.3253 c -2.846449,4.57891 -5.539137,8.70132 -5.983748,9.16089 -0.444613,0.45958 -1.349115,1.07826 -2.010006,1.37485 -1.078764,0.48413 -1.378024,0.53031 -2.927025,0.45179 -1.271014,-0.0644 -1.9547684,-0.20613 -2.5963404,-0.53805 -2.323373,-1.20199 -3.7215754,-3.44029 -3.703527,-5.92878 0.01105,-1.52413 0.262153,-2.32579 3.731895,-11.9144 6.0349304,-16.6775 17.6131294,-46.96692 19.0610884,-49.8652 3.305218,-6.61585 9.400205,-11.86344 17.341285,-14.93029 1.871405,-0.72273 5.356335,-1.72234 8.994055,-2.57981 9.09939,-2.14486 17.1777,-7.83492 22.10215,-15.567925 0.40081,-0.629387 5.91298,-10.631476 12.24929,-22.226868 6.33631,-11.595392 11.773374,-21.397912 12.082374,-21.783378 0.309,-0.385466 1.12412,-0.993701 1.81139,-1.351633 1.0382,-0.5407 1.47134,-0.650787 2.56049,-0.650787 1.6931,0 2.59523,0.281844 3.78825,1.183532 0.66877,0.505449 1.17463,1.13098 1.63885,2.026522 0.6299,1.215139 0.66659,1.394636 0.59217,2.897328 l -0.0793,1.601937 -14.20569,32.439216 -14.205694,32.439216 0.0221,2.50302 c 0.0191,2.15941 0.11189,2.8329 0.67594,4.90593 0.35961,1.32159 0.87155,3.21389 1.13766,4.20508 1.37316,5.11479 0.63949,9.37233 -2.7698,16.0732 -2.80311,5.50946 -3.61431,8.2624 -3.96694,13.46251 -0.39664,5.84909 -1.31227,28.00952 -1.51822,36.74442 -0.0701,2.97359 -0.21121,5.74034 -0.31356,6.14833 -0.24612,0.98108 -1.07151,1.9327 -2.06957,2.38605 -0.76672,0.34828 -1.80916,0.36782 -19.83225,0.37182 l -19.022997,0.005 -0.867395,-0.42933 z m 100.245806,0.2329 c -1.59264,-0.48351 -2.29164,-1.60918 -3.42857,-5.52145 -2.13651,-7.35192 -3.08335,-16.02767 -2.87252,-26.32052 0.19842,-9.68705 1.32367,-20.10952 3.56713,-33.03995 1.5416,-8.88516 1.28043,-14.79057 -0.94379,-21.33997 -0.5271,-1.55209 -3.57599,-8.16223 -16.36713,-35.484761 l -6.30713,-13.472337 3.21594,-7.352838 c 1.76875,-4.044061 3.3596,-7.914368 3.53521,-8.600681 l 0.31929,-1.247841 12.91561,20.869895 c 7.10358,11.478443 13.35876,21.536821 13.9004,22.351947 2.43046,3.657746 6.10798,6.585406 10.22877,8.143086 0.77093,0.29142 4.85668,1.33381 9.07943,2.31642 8.40775,1.95642 9.41192,2.2466 11.67248,3.37306 4.35303,2.16918 7.77539,5.55995 10.02885,9.93631 0.67885,1.31838 3.70897,10.08313 11.58962,33.52345 l 10.67046,31.73837 0.0116,1.70206 c 0.01,1.47275 -0.0639,1.8559 -0.5491,2.84396 -2.04193,4.15817 -7.51086,5.06297 -10.75338,1.7791 -0.99967,-1.01242 -1.31737,-1.5854 -3.34068,-6.02476 -1.22976,-2.69826 -5.63136,-13.241 -9.78131,-23.42832 -8.04217,-19.74194 -7.986,-19.62372 -9.32323,-19.62372 -0.84432,0 -1.78361,0.95092 -1.78361,1.8057 0,0.37796 3.81919,9.97007 9.434,23.69403 l 9.43405,23.05897 -0.10443,5.82913 c -0.11892,6.6394 -0.19614,6.98764 -1.78235,8.03741 l -0.83241,0.55089 -25.44542,0.034 c -13.99497,0.0188 -25.68947,-0.04 -25.98779,-0.13064 z M 46.413576,105.10116 c -3.806458,-0.53742 -7.107376,-2.05222 -10.148462,-4.65713 l -1.143175,-0.979216 -1.068615,0.806816 c -1.939761,1.46453 -2.741882,1.72197 -5.355569,1.71883 -2.077596,-0.002 -2.41598,-0.0555 -3.460352,-0.54238 -2.665847,-1.24272 -4.711282,-4.079493 -4.906247,-6.804379 -0.108195,-1.512188 -0.06304,-1.481431 -1.669243,-1.136964 -0.771854,0.165532 -1.401342,0.165131 -2.410508,-0.0015 -5.842701,-0.9649 -9.0466574,-7.142459 -6.3851314,-12.311191 0.5911414,-1.148006 0.6000074,-1.207474 0.3792874,-2.543988 -0.4908544,-2.972233 0.915871,-6.331029 3.354151,-8.008611 0.848743,-0.58395 0.881035,-0.644021 0.885752,-1.647696 0.01848,-3.932952 2.848692,-7.547785 6.561501,-8.380553 0.834821,-0.187247 1.03362,-0.304905 0.936668,-0.554358 -0.06769,-0.174167 -0.17362,-0.912293 -0.235405,-1.640281 -0.203654,-2.399667 0.619926,-4.644186 2.391361,-6.517219 0.979591,-1.035694 3.03531,-2.271312 3.778952,-2.271312 0.242975,0 0.554071,-0.410258 0.96668,-1.274803 0.794568,-1.664867 1.946166,-2.825314 3.547332,-3.574589 1.108255,-0.518615 1.525297,-0.60514 2.888053,-0.599189 1.340096,0.0058 1.79083,0.100782 2.841425,0.598444 0.686769,0.325319 1.598465,0.948702 2.025993,1.385296 l 0.777315,0.793808 1.225103,-0.50789 c 1.536762,-0.637092 4.061931,-0.698533 5.624115,-0.136843 l 0.994889,0.357718 0.30609,-0.473336 c 0.70749,-1.094076 2.07448,-2.343323 3.1552,-2.883448 1.01316,-0.506354 1.3813,-0.579154 2.96263,-0.58586 1.64168,-0.007 1.92621,0.05163 3.13226,0.645066 2.15206,1.058916 3.63295,3.115354 3.90646,5.424718 0.11853,1.000797 0.1201,1.002632 1.14379,1.333427 3.79258,1.225544 6.1973,4.85199 5.86038,8.837744 -0.0933,1.103701 -0.0624,1.472849 0.12325,1.472967 0.74326,4.01e-4 2.73806,1.231347 3.69829,2.281991 1.14854,1.256685 1.85588,3.021128 1.85588,4.629454 0,1.244768 -0.67464,3.226942 -1.40954,4.141431 l -0.63474,0.789849 0.57067,1.237214 c 0.4856,1.052782 0.57066,1.490932 0.57066,2.939269 0,1.451729 -0.0847,1.885659 -0.57567,2.950428 -0.98179,2.129048 -3.02059,3.686209 -5.22133,3.987854 l -0.92922,0.127364 0.13021,1.823652 c 0.36699,5.139913 -1.59892,10.376005 -5.31653,14.160251 -2.65767,2.705305 -5.49953,4.334105 -9.03549,5.178635 -1.93785,0.46285 -4.991511,0.65029 -6.68912,0.41062 z m 6.21311,-4.11228 c 4.92237,-1.340976 8.97946,-5.280083 10.515,-10.209209 0.66184,-2.124546 0.76017,-5.320548 0.23163,-7.528469 -0.93218,-3.894058 -3.05979,-7.038062 -6.19759,-9.158255 -2.07556,-1.402446 -1.95082,-1.423854 -1.95347,0.335269 -0.005,3.216791 -2.07563,5.875689 -5.26709,6.762993 l -1.18868,0.330484 -0.126,0.949818 c -0.271838,2.049256 -1.972399,4.412821 -3.798402,5.279318 l -0.666146,0.31611 0.09449,1.472379 c 0.2388,3.721059 -1.728865,6.283206 -5.740748,7.475153 -0.700945,0.208254 2.233892,2.388245 4.495847,3.339499 2.02737,0.8526 3.739904,1.142 6.197039,1.0472 1.21147,-0.0468 2.74332,-0.23227 3.40412,-0.41229 z m 110.033024,4.09 c -5.98873,-0.77094 -11.59392,-4.80074 -14.31883,-10.294373 -1.44942,-2.922167 -1.77298,-4.428307 -1.78519,-8.310042 -0.009,-2.853945 0.0516,-3.5222 0.44501,-4.905931 2.11921,-7.454582 8.44105,-12.826632 16.16661,-13.737759 2.81028,-0.331433 5.47112,0.0527 9.32019,1.345496 0.25711,0.08635 0.38078,-0.224347 0.66087,-1.660313 1.21688,-6.238714 5.49219,-9.49259 11.04016,-8.402508 3.25582,0.639711 5.05107,1.859367 6.22088,4.226309 0.71095,1.438489 0.73253,1.551035 0.91013,4.744934 0.38274,6.883332 1.54378,10.881019 3.96309,13.645675 1.68399,1.924402 1.35607,3.007996 -1.01401,3.350656 -2.16431,0.312908 -6.68518,0.224896 -8.60416,-0.167508 l -1.72515,-0.352767 -0.11179,2.508733 c -0.23371,5.244256 -2.11293,9.449544 -5.77457,12.922192 -3.12807,2.966616 -6.56405,4.592086 -10.78242,5.100886 -1.90875,0.23022 -2.73524,0.22776 -4.61082,-0.0137 z m 5.28086,-3.87545 c 3.00674,-0.57529 5.41978,-1.850808 7.66785,-4.053178 0.80779,-0.791377 1.46872,-1.517523 1.46872,-1.613662 0,-0.09614 -0.54959,-0.529963 -1.22131,-0.964045 -2.53577,-1.638691 -4.49576,-5.357305 -5.0788,-9.635824 l -0.14133,-1.037135 -1.33479,-0.119701 c -6.27778,-0.562975 -10.23993,-2.914643 -12.46034,-7.395615 -0.97291,-1.963405 -0.93349,-1.95885 -2.50517,-0.289545 -1.92577,2.04539 -3.19951,4.35325 -3.82454,6.929572 -0.42899,1.76833 -0.42899,5.132007 0,6.900333 1.88784,7.781575 9.60564,12.77578 17.42971,11.2788 z M 93.876546,46.379444 c -0.67416,-0.172931 -1.6798,-1.078931 -6.35226,-5.722869 -3.07912,-3.060322 -5.70355,-5.835487 -5.89318,-6.231653 -1.36631,-2.854437 1.28873,-6.028775 4.36339,-5.216819 0.76399,0.201754 1.57252,0.925713 6.44486,5.77075 3.064204,3.047032 5.692164,5.768442 5.839914,6.047581 1.08235,2.044856 -0.037,4.774747 -2.20457,5.376512 -0.92258,0.25613 -1.116084,0.254061 -2.198154,-0.0235 z m 20.856254,-0.03618 c -1.44744,-0.533113 -2.5253,-2.036203 -2.5253,-3.521573 0,-1.40819 0.61443,-2.169829 6.32696,-7.84284 4.89766,-4.863779 5.68629,-5.568487 6.46049,-5.772972 0.98057,-0.259 2.27192,-0.03928 3.1498,0.535928 1.50023,0.982986 1.94023,3.473416 0.89773,5.081058 -0.74001,1.14116 -10.53263,10.854921 -11.36616,11.274622 -0.93905,0.472844 -2.07051,0.567316 -2.94352,0.245777 z m -10.21234,-5.015108 c -0.99151,-0.353524 -1.69262,-1.007496 -2.15564,-2.010701 -0.33939,-0.735355 -0.36967,-1.44069 -0.36967,-8.61041 0,-7.199809 0.0292,-7.873782 0.3743,-8.633655 0.54057,-1.190387 1.5996,-1.927985 2.9261,-2.037988 1.40939,-0.116877 1.93999,0.033 2.80475,0.792278 1.32923,1.167083 1.29501,0.90611 1.29501,9.877399 0,7.701541 -0.0207,8.168423 -0.39594,8.903852 -0.46559,0.912621 -1.19806,1.479982 -2.30732,1.787225 -1.00402,0.27809 -1.21988,0.27133 -2.17159,-0.068 z"
       id="path391" />
  </g>
</svg>
